<svg width="30" height="20" viewBox="0 0 30 20" fill="none"
  xmlns="http://www.w3.org/2000/svg">
  <path d="M0 19C0 18.4477 0.447715 18 1 18H29C29.5523 18 30 18.4477 30 19C30 19.5523 29.5523 20 29 20H1C0.447716 20 0 19.5523 0 19Z" fill="#5A5A5A"/>
  <path d="M0 10C0 9.44772 0.447715 9 1 9L19 9C19.5523 9 20 9.44772 20 10C20 10.5523 19.5523 11 19 11H1C0.447716 11 0 10.5523 0 10Z" fill="#5A5A5A"/>
  <path d="M0 1C0 0.447715 0.447715 0 1 0L29 0C29.5523 0 30 0.447715 30 1C30 1.55228 29.5523 2 29 2L1 2C0.447716 2 0 1.55228 0 1Z" fill="#5A5A5A"/>
</svg>
