<svg width="18" height="18" viewBox="0 0 18 18" fill="none"
  xmlns="http://www.w3.org/2000/svg">
  <path d="M9 13.5C8.50294 13.5 8.1 13.0971 8.1 12.6V9.9H5.4C4.90294 9.9 4.5 9.49706 4.5 9C4.5 8.50294 4.90294 8.1 5.4 8.1H8.1V5.4C8.1 4.90294 8.50294 4.5 9 4.5C9.49706 4.5 9.9 4.90294 9.9 5.4V8.1L12.6 8.1C13.0971 8.1 13.5 8.50294 13.5 9C13.5 9.49706 13.0971 9.9 12.6 9.9L9.9 9.9V12.6C9.9 13.0971 9.49706 13.5 9 13.5Z" fill="#7D7D7D"/>
  <path fill-rule="evenodd" clip-rule="evenodd" d="M3.6 0C1.61177 0 0 1.61178 0 3.6V14.4C0 16.3882 1.61178 18 3.6 18H14.4C16.3882 18 18 16.3882 18 14.4V3.6C18 1.61177 16.3882 0 14.4 0H3.6ZM1.8 3.6C1.8 2.60589 2.60589 1.8 3.6 1.8H14.4C15.3941 1.8 16.2 2.60589 16.2 3.6V14.4C16.2 15.3941 15.3941 16.2 14.4 16.2H3.6C2.60589 16.2 1.8 15.3941 1.8 14.4V3.6Z" fill="#7D7D7D"/>
</svg>
