<svg width="141" height="41" viewBox="0 0 141 41" fill="none"
  xmlns="http://www.w3.org/2000/svg">
  <g clip-path="url(#clip0_1516_518)">
    <path d="M5.09062 18.1376C5.40653 18.6631 5.86393 19.0894 6.41064 19.3677C6.9702 19.6638 7.5947 19.8162 8.22789 19.8112C8.76656 19.8134 9.30212 19.7295 9.81429 19.5628C10.3065 19.3963 10.7728 19.1614 11.1994 18.865C11.6197 18.5736 11.9778 18.2017 12.2531 17.771V22.1176C11.7201 22.5215 11.1185 22.826 10.4773 23.0165C9.63206 23.2647 8.75344 23.3804 7.87273 23.3595C6.47621 23.3825 5.09366 23.0787 3.8357 22.4724C2.68612 21.9209 1.71264 21.0609 1.02399 19.9886C0.327715 18.8724 -0.0281242 17.5779 -6.61436e-05 16.263C-0.0312516 14.9421 0.324695 13.641 1.02399 12.5196C1.71679 11.4552 2.68959 10.602 3.8357 10.0535C5.09366 9.44719 6.47621 9.1434 7.87273 9.16646C8.75344 9.14555 9.63206 9.26126 10.4773 9.50946C11.1092 9.69567 11.7083 9.97897 12.2531 10.3492V14.7254C11.974 14.2899 11.6071 13.9172 11.1758 13.6313C10.7316 13.3365 10.2471 13.1075 9.73734 12.9513C9.24903 12.7967 8.74011 12.717 8.22789 12.7147C7.59122 12.7115 6.96476 12.8746 6.41064 13.1878C5.86409 13.4852 5.40804 13.9245 5.09062 14.4593C4.77217 15.0066 4.6085 15.63 4.61706 16.263C4.59817 16.9196 4.76211 17.5686 5.09062 18.1376Z" fill="black"/>
    <path d="M19.83 0V23.0636H15.3313V0H19.83Z" fill="black"/>
    <path d="M23.6775 2.61509C24.1954 2.18722 24.8464 1.95312 25.5184 1.95313C26.1905 1.95312 26.8415 2.18722 27.3594 2.61509C27.6063 2.82974 27.8024 3.09656 27.9335 3.39624C28.0645 3.69591 28.1272 4.02095 28.117 4.34782C28.1305 4.68118 28.0695 5.01336 27.9384 5.32023C27.8074 5.6271 27.6096 5.90096 27.3594 6.12194C26.8466 6.56084 26.1936 6.80207 25.5184 6.80207C24.8432 6.80207 24.1903 6.56084 23.6775 6.12194C23.4235 5.90346 23.2223 5.63034 23.089 5.32308C22.9557 5.01582 22.8938 4.68239 22.908 4.34782C22.8976 4.01978 22.9613 3.69362 23.0946 3.39362C23.2278 3.09362 23.4271 2.82751 23.6775 2.61509ZM27.6731 9.46321V23.0648H23.3519V9.46321H27.6731Z" fill="black"/>
    <path d="M35.4276 18.1376C35.7412 18.6629 36.1966 19.0892 36.7417 19.3677C37.3037 19.6631 37.9299 19.8155 38.5649 19.8112C39.1016 19.8134 39.6352 19.7295 40.1454 19.5628C40.64 19.3976 41.1084 19.1626 41.5364 18.865C41.9673 18.5766 42.3357 18.2046 42.6197 17.771V22.1176C42.0867 22.5215 41.4851 22.826 40.8439 23.0165C39.9987 23.2647 39.12 23.3804 38.2393 23.3595C36.831 23.387 35.4359 23.0831 34.1668 22.4724C33.0248 21.9166 32.0581 21.0573 31.3728 19.9886C30.6783 18.8719 30.3245 17.5773 30.3547 16.263C30.3214 14.9427 30.6753 13.6415 31.3728 12.5196C32.0624 11.4591 33.0284 10.6065 34.1668 10.0535C35.4269 9.44733 36.8113 9.14357 38.2097 9.16646C39.0904 9.14555 39.9691 9.26126 40.8143 9.50946C41.4462 9.69567 42.0453 9.97897 42.5901 10.3492V14.7254C42.3089 14.2896 41.94 13.917 41.5068 13.6313C41.0642 13.3377 40.5818 13.1087 40.0743 12.9513C39.586 12.7967 39.0771 12.717 38.5649 12.7147C37.9264 12.7121 37.2982 12.8751 36.7417 13.1878C36.1931 13.4898 35.7376 13.9359 35.4246 14.478C35.1116 15.02 34.9529 15.6373 34.9659 16.263C34.9434 16.9185 35.1032 17.5674 35.4276 18.1376Z" fill="black"/>
    <path d="M49.9301 0V23.0636H45.6385V0H49.9301ZM60.2002 9.462L54.3992 15.0801L60.7922 23.0636H55.5535L49.0422 15.0801L54.8728 9.462H60.2002Z" fill="black"/>
    <path d="M67.0963 23.0636H62.5975V0H67.0963V23.0636ZM71.0327 12.9215C70.8518 12.6924 70.6158 12.5126 70.3468 12.3989C70.0777 12.2852 69.7843 12.2412 69.4936 12.271C69.0583 12.2593 68.6282 12.3678 68.2506 12.5845C67.9003 12.7856 67.6132 13.0805 67.4219 13.436C67.211 13.8534 67.1092 14.3172 67.1259 14.7844H66.3564C66.3396 13.7735 66.5205 12.7691 66.8891 11.8275C67.2141 10.9869 67.7727 10.2564 68.4992 9.7222C69.3158 9.17374 70.2864 8.90024 71.2695 8.94159C72.2076 8.89704 73.1409 9.10106 73.9746 9.53296C74.6609 9.93739 75.1891 10.563 75.4722 11.3071C75.8112 12.2141 75.972 13.1779 75.9458 14.1457V23.0636H71.447V14.7844C71.4966 14.1361 71.3524 13.4878 71.0327 12.9215Z" fill="black"/>
    <path d="M79.4678 12.5066C80.1573 11.4423 81.1313 10.5921 82.2795 10.0523C83.5231 9.44731 84.892 9.14342 86.2751 9.16529C87.6526 9.14219 89.016 9.44622 90.2529 10.0523C91.3908 10.6097 92.3532 11.4689 93.035 12.5361C93.7337 13.6622 94.0895 14.9669 94.0591 16.2914C94.0871 17.6062 93.7313 18.9008 93.035 20.017C92.3532 21.0842 91.3908 21.9435 90.2529 22.5008C89.016 23.1069 87.6526 23.4109 86.2751 23.3878C84.8896 23.4005 83.5206 23.0865 82.2795 22.4712C81.113 21.9152 80.1336 21.032 79.4609 19.9294C78.7882 18.8268 78.4512 17.5524 78.4911 16.2618C78.4488 14.9423 78.7879 13.6386 79.4678 12.5066ZM83.493 18.0832C83.7694 18.5701 84.167 18.9775 84.6472 19.266C85.0088 19.4754 85.4083 19.6109 85.8227 19.6648C86.2372 19.7186 86.6581 19.6897 87.0613 19.5797C87.4644 19.4696 87.8416 19.2807 88.171 19.0238C88.5005 18.7669 88.7755 18.4472 88.9802 18.0832C89.2793 17.5236 89.4282 16.896 89.4124 16.2618C89.4276 15.6238 89.2788 14.9926 88.9802 14.4285C88.7139 13.9341 88.314 13.5243 87.826 13.2458C87.3403 12.9744 86.7931 12.8319 86.2366 12.8319C85.6801 12.8319 85.1329 12.9744 84.6472 13.2458C84.1644 13.5309 83.7661 13.9391 83.493 14.4285C83.1851 14.9896 83.0319 15.6222 83.049 16.2618C83.0309 16.8977 83.1842 17.5268 83.493 18.0832Z" fill="black"/>
    <path d="M101.666 19.5912C101.843 19.8246 102.078 20.0083 102.348 20.1243C102.618 20.2404 102.913 20.2849 103.205 20.2535C103.642 20.2661 104.074 20.1641 104.46 19.9578C104.808 19.7554 105.091 19.458 105.276 19.1003C105.484 18.6776 105.585 18.2108 105.572 17.7402V9.46094H110.042V23.0625H105.572V21.0223C105.183 21.7247 104.623 22.3184 103.945 22.7491C103.184 23.198 102.311 23.4196 101.429 23.3878C99.7299 23.3878 98.4691 22.9324 97.7114 22.0099C96.871 20.9286 96.4505 19.5801 96.5275 18.2133V9.46094H101.222V17.7402C101.186 18.3872 101.34 19.0306 101.666 19.5912Z" fill="black"/>
    <path d="M116.02 19.4688C116.491 19.7543 116.994 19.9845 117.518 20.1548C117.882 20.2694 118.261 20.3331 118.642 20.3441C119.003 20.3716 119.361 20.2664 119.649 20.0484C119.755 19.951 119.839 19.832 119.895 19.6993C119.951 19.5667 119.978 19.4235 119.974 19.2796C119.983 19.0048 119.888 18.7368 119.708 18.5285C119.451 18.2694 119.143 18.0678 118.802 17.9372C118.24 17.6923 117.663 17.4849 117.074 17.3162C116.434 17.0869 115.815 16.8061 115.221 16.4765C114.646 16.1554 114.156 15.7036 113.789 15.1577C113.388 14.5221 113.192 13.7791 113.226 13.0288C113.202 12.274 113.436 11.5336 113.889 10.9294C114.36 10.338 114.984 9.88777 115.695 9.62836C116.533 9.31867 117.423 9.16824 118.317 9.18483C119.059 9.17933 119.799 9.26876 120.519 9.45095C121.182 9.62236 121.827 9.86011 122.443 10.1606C123.042 10.4524 123.612 10.7988 124.147 11.1955L122.549 14.0932C121.97 13.5575 121.311 13.1147 120.596 12.7804C119.972 12.4601 119.284 12.2824 118.583 12.26C118.254 12.2354 117.926 12.3184 117.648 12.4965C117.554 12.5645 117.478 12.6533 117.424 12.7559C117.371 12.8586 117.342 12.9722 117.34 13.0879C117.338 13.2314 117.37 13.3735 117.434 13.5021C117.498 13.6307 117.591 13.7421 117.707 13.8271C118.033 14.0628 118.392 14.2482 118.773 14.3771L120.477 15.0099C121.156 15.2508 121.813 15.5475 122.443 15.8969C123.015 16.2066 123.511 16.6412 123.893 17.1684C124.286 17.774 124.479 18.4877 124.443 19.2086C124.493 19.8249 124.4 20.4442 124.171 21.0186C123.942 21.5929 123.583 22.1068 123.123 22.5203C122.024 23.3353 120.672 23.7373 119.305 23.6558C118.391 23.6626 117.479 23.5492 116.594 23.3187C115.789 23.1001 115.011 22.7926 114.274 22.402C113.58 22.0251 112.917 21.594 112.291 21.1128L114.156 18.156C114.738 18.6468 115.362 19.0861 116.02 19.4688Z" fill="black"/>
    <path d="M129.587 22.4718C128.473 21.9257 127.544 21.0666 126.912 19.9998C126.259 18.8577 125.932 17.5592 125.965 16.2446C125.928 14.9239 126.245 13.6174 126.882 12.4598C127.503 11.4107 128.425 10.5721 129.528 10.0529C130.81 9.45267 132.215 9.15908 133.63 9.19541C135.007 9.15405 136.375 9.43345 137.626 10.0115C138.679 10.5251 139.547 11.3513 140.112 12.377C140.712 13.5252 141.008 14.8079 140.97 16.1027V16.7354C140.973 16.9107 140.953 17.0856 140.911 17.2558H128.48V14.7248H136.886L135.82 16.0849C135.925 15.925 136.009 15.752 136.069 15.5704C136.131 15.4035 136.167 15.228 136.176 15.05C136.187 14.5193 136.076 13.9931 135.85 13.5124C135.646 13.0971 135.328 12.7484 134.933 12.5071C134.51 12.2636 134.029 12.1408 133.541 12.1523C132.948 12.1303 132.361 12.2847 131.854 12.5958C131.37 12.9194 131.006 13.3932 130.819 13.9441C130.571 14.6714 130.447 15.435 130.452 16.2032C130.438 16.9297 130.562 17.6522 130.819 18.3321C131.023 18.8825 131.396 19.3544 131.884 19.6805C132.41 19.9976 133.016 20.1558 133.63 20.1358C134.331 20.1552 135.026 20.0029 135.655 19.6923C136.224 19.3892 136.693 18.9269 137.004 18.3617L141 19.3375C140.358 20.6073 139.353 21.6573 138.111 22.3535C136.785 22.9915 135.336 23.334 133.864 23.3575C132.393 23.381 130.933 23.0848 129.587 22.4895V22.4718Z" fill="black"/>
    <path d="M60.7745 36.6286H54.4703L49.936 40.9988V26.2559L60.7745 36.6286Z" fill="black"/>
    <path d="M45.603 28.3379H0V30.7507H45.603V28.3379Z" fill="#FF9900"/>
    <path d="M141 28.3379H62.5798V30.7507H141V28.3379Z" fill="#FF9900"/>
  </g>
  <defs>
    <clipPath id="clip0_1516_518">
      <rect width="141" height="41" fill="white"/>
    </clipPath>
  </defs>
</svg>
